<svg width="205" height="59" viewBox="0 0 205 59" fill="none" xmlns="http://www.w3.org/2000/svg">
<path d="M62.45 42.68H60.77V46H60.26V39H60.77V42.22H62.46L64.97 39H65.54L62.86 42.41L65.72 46H65.12L62.45 42.68ZM71.0488 40.78L68.3688 46.71C68.1688 47.17 67.9354 47.4967 67.6688 47.69C67.4088 47.8833 67.0988 47.98 66.7388 47.98C66.4988 47.98 66.2721 47.94 66.0588 47.86C65.8521 47.78 65.6754 47.6633 65.5287 47.51L65.7788 47.13C66.0454 47.4033 66.3688 47.54 66.7488 47.54C67.0021 47.54 67.2188 47.47 67.3988 47.33C67.5788 47.19 67.7454 46.95 67.8988 46.61L68.1788 45.98L65.8288 40.78H66.3588L68.4488 45.45L70.5388 40.78H71.0488ZM74.8877 40.74C75.3744 40.74 75.8144 40.8533 76.2077 41.08C76.6011 41.3067 76.9077 41.62 77.1277 42.02C77.3544 42.42 77.4677 42.8767 77.4677 43.39C77.4677 43.9033 77.3544 44.3633 77.1277 44.77C76.9077 45.17 76.6011 45.4833 76.2077 45.71C75.8144 45.93 75.3744 46.04 74.8877 46.04C74.4277 46.04 74.0111 45.9333 73.6377 45.72C73.2644 45.5 72.9744 45.1967 72.7677 44.81V47.94H72.2677V40.78H72.7477V42.01C72.9544 41.61 73.2444 41.3 73.6177 41.08C73.9977 40.8533 74.4211 40.74 74.8877 40.74ZM74.8577 45.59C75.2577 45.59 75.6177 45.4967 75.9377 45.31C76.2577 45.1233 76.5077 44.8633 76.6877 44.53C76.8744 44.1967 76.9677 43.8167 76.9677 43.39C76.9677 42.9633 76.8744 42.5833 76.6877 42.25C76.5077 41.9167 76.2577 41.6567 75.9377 41.47C75.6177 41.2833 75.2577 41.19 74.8577 41.19C74.4577 41.19 74.0977 41.2833 73.7777 41.47C73.4644 41.6567 73.2144 41.9167 73.0277 42.25C72.8477 42.5833 72.7577 42.9633 72.7577 43.39C72.7577 43.8167 72.8477 44.1967 73.0277 44.53C73.2144 44.8633 73.4644 45.1233 73.7777 45.31C74.0977 45.4967 74.4577 45.59 74.8577 45.59ZM81.2037 46.04C80.697 46.04 80.2437 45.9267 79.8437 45.7C79.4437 45.4733 79.1303 45.16 78.9037 44.76C78.677 44.3533 78.5637 43.8967 78.5637 43.39C78.5637 42.8767 78.677 42.42 78.9037 42.02C79.1303 41.6133 79.4437 41.3 79.8437 41.08C80.2437 40.8533 80.697 40.74 81.2037 40.74C81.6237 40.74 82.0037 40.8233 82.3437 40.99C82.6903 41.15 82.9703 41.3867 83.1837 41.7L82.8137 41.97C82.627 41.71 82.3937 41.5167 82.1137 41.39C81.8403 41.2567 81.537 41.19 81.2037 41.19C80.797 41.19 80.4303 41.2833 80.1037 41.47C79.7837 41.65 79.5303 41.9067 79.3437 42.24C79.1637 42.5733 79.0737 42.9567 79.0737 43.39C79.0737 43.8233 79.1637 44.2067 79.3437 44.54C79.5303 44.8733 79.7837 45.1333 80.1037 45.32C80.4303 45.5 80.797 45.59 81.2037 45.59C81.537 45.59 81.8403 45.5267 82.1137 45.4C82.3937 45.2667 82.627 45.07 82.8137 44.81L83.1837 45.08C82.9703 45.3933 82.6903 45.6333 82.3437 45.8C82.0037 45.96 81.6237 46.04 81.2037 46.04ZM86.7201 42.68C87.3667 42.6867 87.8601 42.83 88.2001 43.11C88.5401 43.3833 88.7101 43.7867 88.7101 44.32C88.7101 44.8733 88.5301 45.2967 88.1701 45.59C87.8101 45.8833 87.2901 46.0267 86.6101 46.02L84.6601 46V40.78H85.1601V42.66L86.7201 42.68ZM89.6701 40.78H90.1701V46H89.6701V40.78ZM86.5901 45.62C87.1234 45.6267 87.5267 45.52 87.8001 45.3C88.0734 45.08 88.2101 44.7533 88.2101 44.32C88.2101 43.9 88.0767 43.59 87.8101 43.39C87.5434 43.1833 87.1367 43.0733 86.5901 43.06L85.1601 43.05V45.6L86.5901 45.62ZM96.6147 40.74C97.2614 40.74 97.758 40.9067 98.1047 41.24C98.4514 41.5667 98.6247 42.05 98.6247 42.69V46H98.1447V45.07C97.978 45.3767 97.7347 45.6167 97.4147 45.79C97.0947 45.9567 96.7114 46.04 96.2647 46.04C95.6847 46.04 95.2247 45.9033 94.8847 45.63C94.5514 45.3567 94.3847 44.9967 94.3847 44.55C94.3847 44.1167 94.538 43.7667 94.8447 43.5C95.158 43.2267 95.6547 43.09 96.3347 43.09H98.1247V42.67C98.1247 42.1833 97.9914 41.8133 97.7247 41.56C97.4647 41.3067 97.0814 41.18 96.5747 41.18C96.228 41.18 95.8947 41.24 95.5747 41.36C95.2614 41.48 94.9947 41.64 94.7747 41.84L94.5247 41.48C94.7847 41.2467 95.098 41.0667 95.4647 40.94C95.8314 40.8067 96.2147 40.74 96.6147 40.74ZM96.3347 45.63C96.768 45.63 97.1347 45.53 97.4347 45.33C97.7414 45.13 97.9714 44.84 98.1247 44.46V43.48H96.3447C95.8314 43.48 95.458 43.5733 95.2247 43.76C94.998 43.9467 94.8847 44.2033 94.8847 44.53C94.8847 44.87 95.0114 45.14 95.2647 45.34C95.518 45.5333 95.8747 45.63 96.3347 45.63ZM100.656 40.78H101.156V43.16H104.696V40.78H105.196V46H104.696V43.6H101.156V46H100.656V40.78ZM110.925 41.23H107.855V46H107.355V40.78H110.925V41.23ZM115.771 40.78V46H115.271V41.23H112.551L112.481 42.62C112.441 43.34 112.381 43.9433 112.301 44.43C112.221 44.9167 112.085 45.31 111.891 45.61C111.698 45.91 111.431 46.06 111.091 46.06C110.991 46.06 110.848 46.0367 110.661 45.99L110.711 45.56C110.818 45.5867 110.898 45.6 110.951 45.6C111.231 45.6 111.445 45.4633 111.591 45.19C111.738 44.9167 111.838 44.5767 111.891 44.17C111.945 43.7633 111.988 43.2333 112.021 42.58L112.111 40.78H115.771ZM117.932 40.78H118.432V45.23L122.152 40.78H122.592V46H122.092V41.55L118.372 46H117.932V40.78ZM124.748 40.78H125.248V45.23L128.968 40.78H129.408V46H128.908V41.55L125.188 46H124.748V40.78ZM127.058 39.98C126.638 39.98 126.298 39.8733 126.038 39.66C125.778 39.44 125.645 39.1367 125.638 38.75H126.008C126.015 39.0233 126.115 39.24 126.308 39.4C126.508 39.56 126.758 39.64 127.058 39.64C127.358 39.64 127.605 39.56 127.798 39.4C127.991 39.24 128.091 39.0233 128.098 38.75H128.478C128.471 39.1367 128.338 39.44 128.078 39.66C127.818 39.8733 127.478 39.98 127.058 39.98ZM133.674 46.04C133.168 46.04 132.714 45.9267 132.314 45.7C131.914 45.4733 131.601 45.16 131.374 44.76C131.148 44.3533 131.034 43.8967 131.034 43.39C131.034 42.8767 131.148 42.42 131.374 42.02C131.601 41.6133 131.914 41.3 132.314 41.08C132.714 40.8533 133.168 40.74 133.674 40.74C134.094 40.74 134.474 40.8233 134.814 40.99C135.161 41.15 135.441 41.3867 135.654 41.7L135.284 41.97C135.098 41.71 134.864 41.5167 134.584 41.39C134.311 41.2567 134.008 41.19 133.674 41.19C133.268 41.19 132.901 41.2833 132.574 41.47C132.254 41.65 132.001 41.9067 131.814 42.24C131.634 42.5733 131.544 42.9567 131.544 43.39C131.544 43.8233 131.634 44.2067 131.814 44.54C132.001 44.8733 132.254 45.1333 132.574 45.32C132.901 45.5 133.268 45.59 133.674 45.59C134.008 45.59 134.311 45.5267 134.584 45.4C134.864 45.2667 135.098 45.07 135.284 44.81L135.654 45.08C135.441 45.3933 135.161 45.6333 134.814 45.8C134.474 45.96 134.094 46.04 133.674 46.04ZM138.901 43.58H137.631V46H137.131V40.78H137.631V43.15H138.901L140.871 40.78H141.421L139.301 43.31L141.581 46H140.981L138.901 43.58ZM144.709 46.04C144.215 46.04 143.769 45.9267 143.369 45.7C142.975 45.4733 142.665 45.16 142.439 44.76C142.212 44.3533 142.099 43.8967 142.099 43.39C142.099 42.8833 142.212 42.43 142.439 42.03C142.665 41.6233 142.975 41.3067 143.369 41.08C143.769 40.8533 144.215 40.74 144.709 40.74C145.202 40.74 145.645 40.8533 146.039 41.08C146.439 41.3067 146.752 41.6233 146.979 42.03C147.205 42.43 147.319 42.8833 147.319 43.39C147.319 43.8967 147.205 44.3533 146.979 44.76C146.752 45.16 146.439 45.4733 146.039 45.7C145.645 45.9267 145.202 46.04 144.709 46.04ZM144.709 45.59C145.109 45.59 145.465 45.4967 145.779 45.31C146.099 45.1233 146.349 44.8633 146.529 44.53C146.715 44.1967 146.809 43.8167 146.809 43.39C146.809 42.9633 146.715 42.5833 146.529 42.25C146.349 41.9167 146.099 41.6567 145.779 41.47C145.465 41.2833 145.109 41.19 144.709 41.19C144.309 41.19 143.949 41.2833 143.629 41.47C143.315 41.6567 143.065 41.9167 142.879 42.25C142.699 42.5833 142.609 42.9633 142.609 43.39C142.609 43.8167 142.699 44.1967 142.879 44.53C143.065 44.8633 143.315 45.1233 143.629 45.31C143.949 45.4967 144.309 45.59 144.709 45.59ZM152.517 41.23H149.447V46H148.947V40.78H152.517V41.23ZM155.422 46.04C154.928 46.04 154.482 45.9267 154.082 45.7C153.688 45.4733 153.378 45.16 153.152 44.76C152.925 44.3533 152.812 43.8967 152.812 43.39C152.812 42.8833 152.925 42.43 153.152 42.03C153.378 41.6233 153.688 41.3067 154.082 41.08C154.482 40.8533 154.928 40.74 155.422 40.74C155.915 40.74 156.358 40.8533 156.752 41.08C157.152 41.3067 157.465 41.6233 157.692 42.03C157.918 42.43 158.032 42.8833 158.032 43.39C158.032 43.8967 157.918 44.3533 157.692 44.76C157.465 45.16 157.152 45.4733 156.752 45.7C156.358 45.9267 155.915 46.04 155.422 46.04ZM155.422 45.59C155.822 45.59 156.178 45.4967 156.492 45.31C156.812 45.1233 157.062 44.8633 157.242 44.53C157.428 44.1967 157.522 43.8167 157.522 43.39C157.522 42.9633 157.428 42.5833 157.242 42.25C157.062 41.9167 156.812 41.6567 156.492 41.47C156.178 41.2833 155.822 41.19 155.422 41.19C155.022 41.19 154.662 41.2833 154.342 41.47C154.028 41.6567 153.778 41.9167 153.592 42.25C153.412 42.5833 153.322 42.9633 153.322 43.39C153.322 43.8167 153.412 44.1967 153.592 44.53C153.778 44.8633 154.028 45.1233 154.342 45.31C154.662 45.4967 155.022 45.59 155.422 45.59ZM166.078 40.78V46H165.618V44.2H163.878C163.758 44.2 163.672 44.1967 163.618 44.19L162.328 46H161.778L163.128 44.13C162.702 44.0367 162.375 43.8533 162.148 43.58C161.922 43.3067 161.808 42.9533 161.808 42.52C161.808 41.9467 161.998 41.5133 162.378 41.22C162.765 40.9267 163.292 40.78 163.958 40.78H166.078ZM162.308 42.54C162.308 43.3933 162.848 43.82 163.928 43.82H165.618V41.22H163.988C162.868 41.22 162.308 41.66 162.308 42.54ZM170.417 43.28C170.804 43.3533 171.101 43.5 171.307 43.72C171.521 43.9333 171.627 44.1967 171.627 44.51C171.627 44.8167 171.524 45.0867 171.317 45.32C171.117 45.5533 170.844 45.7333 170.497 45.86C170.151 45.9867 169.774 46.05 169.367 46.05C168.994 46.05 168.627 45.9933 168.267 45.88C167.914 45.76 167.604 45.59 167.337 45.37L167.537 45C167.771 45.2 168.047 45.3533 168.367 45.46C168.694 45.5667 169.024 45.62 169.357 45.62C169.851 45.62 170.267 45.5167 170.607 45.31C170.947 45.0967 171.117 44.8167 171.117 44.47C171.117 44.1633 170.974 43.9233 170.687 43.75C170.407 43.57 170.027 43.48 169.547 43.48H168.707V43.1H169.527C169.947 43.1 170.291 43.0167 170.557 42.85C170.831 42.6833 170.967 42.46 170.967 42.18C170.967 41.8533 170.817 41.6033 170.517 41.43C170.224 41.25 169.847 41.16 169.387 41.16C168.801 41.16 168.247 41.31 167.727 41.61L167.577 41.21C168.164 40.8833 168.787 40.72 169.447 40.72C170.027 40.72 170.511 40.8467 170.897 41.1C171.284 41.3467 171.477 41.6833 171.477 42.11C171.477 42.3833 171.381 42.6233 171.187 42.83C170.994 43.0367 170.737 43.1867 170.417 43.28ZM175.431 42.68C176.078 42.6867 176.571 42.83 176.911 43.11C177.251 43.3833 177.421 43.7867 177.421 44.32C177.421 44.8733 177.241 45.2967 176.881 45.59C176.521 45.8833 176.001 46.0267 175.321 46.02L173.371 46V40.78H173.871V42.66L175.431 42.68ZM178.381 40.78H178.881V46H178.381V40.78ZM175.301 45.62C175.834 45.6267 176.238 45.52 176.511 45.3C176.784 45.08 176.921 44.7533 176.921 44.32C176.921 43.9 176.788 43.59 176.521 43.39C176.254 43.1833 175.848 43.0733 175.301 43.06L173.871 43.05V45.6L175.301 45.62ZM182.797 43.58H181.527V46H181.027V40.78H181.527V43.15H182.797L184.767 40.78H185.317L183.197 43.31L185.477 46H184.877L182.797 43.58ZM188.343 40.74C188.99 40.74 189.487 40.9067 189.833 41.24C190.18 41.5667 190.353 42.05 190.353 42.69V46H189.873V45.07C189.707 45.3767 189.463 45.6167 189.143 45.79C188.823 45.9567 188.44 46.04 187.993 46.04C187.413 46.04 186.953 45.9033 186.613 45.63C186.28 45.3567 186.113 44.9967 186.113 44.55C186.113 44.1167 186.267 43.7667 186.573 43.5C186.887 43.2267 187.383 43.09 188.063 43.09H189.853V42.67C189.853 42.1833 189.72 41.8133 189.453 41.56C189.193 41.3067 188.81 41.18 188.303 41.18C187.957 41.18 187.623 41.24 187.303 41.36C186.99 41.48 186.723 41.64 186.503 41.84L186.253 41.48C186.513 41.2467 186.827 41.0667 187.193 40.94C187.56 40.8067 187.943 40.74 188.343 40.74ZM188.063 45.63C188.497 45.63 188.863 45.53 189.163 45.33C189.47 45.13 189.7 44.84 189.853 44.46V43.48H188.073C187.56 43.48 187.187 43.5733 186.953 43.76C186.727 43.9467 186.613 44.2033 186.613 44.53C186.613 44.87 186.74 45.14 186.993 45.34C187.247 45.5333 187.603 45.63 188.063 45.63Z" fill="#1C1C1C"/>
<path d="M22.6433 56.5002C23.5535 50.8493 19.8519 43.2042 15.4769 38.9797C15.7025 40.4673 16.8462 41.3822 15.797 45.2478C16.2948 42.2232 12.3574 34.671 13.5109 30.7676C11.664 32.744 11.6876 37.6435 12.1859 40.0937C9.58054 37.516 8.9101 32.9341 10.1168 30.4812C10.0762 32.1287 10.084 33.1193 10.7705 34.2478C10.3924 32.4451 10.6514 30.639 12.002 29.2869C10.6474 28.8398 9.83455 27.3549 9.53894 26.0461C9.40882 27.488 9.43989 27.8092 9.66732 28.9193C6.76213 22.6429 12.2473 16.2553 14.5332 15.5489C12.949 16.8671 12.1433 19.0044 11.9434 21.2898C12.7122 19.9424 13.7599 18.687 15.6301 17.9241C14.7094 18.7882 14.0839 19.8752 13.8014 20.8304C14.7254 19.7232 16.5652 18.6317 18.4178 19.661C17.8101 20.7834 17.1455 22.6657 17.6143 25.0493C16.2573 23.9602 15.893 22.2332 16.6745 20.1392C14.3886 21.8327 14.5268 23.4316 14.8575 25.6505C13.3436 24.1797 13.2143 22.7845 13.6284 21.3684C12.8421 21.9743 12.2248 23.1678 12.2191 24.7229C11.6959 24.3747 11.1557 23.7066 11.1262 22.3233C8.97859 27.4874 13.4719 26.9896 12.34 30.2584C13.3238 29.0333 13.6333 27.1041 12.5673 25.8545C15.0846 27.173 14.8968 28.449 15.0133 30.5657C15.0133 30.5657 16.1009 29.8373 16.0392 27.7964C16.6913 28.357 18.1592 30.6138 17.2233 32.6994C18.8694 31.2607 19.3592 28.8872 17.723 26.7474C19.7145 27.3724 20.1208 30.2696 19.9944 31.8017C20.616 31.2035 21.0235 30.8714 20.8243 29.607C23.1141 33.4489 19.8341 33.7786 22.6968 37.3022C22.232 36.2955 22.4009 34.1999 23.387 33.2895C23.55 34.8038 23.3451 35.9331 25.3166 37.3649C24.961 36.1258 25.1351 35.6163 25.733 34.2392C26.172 35.5995 28.4488 38.9182 31.0176 40.6322C29.151 40.5944 26.9503 40.0615 24.614 38.3643C25.9667 41.5398 29.8035 42.5924 32.1548 42.9567C31.2445 43.2427 30.7492 43.3971 29.5859 43.2321C30.8152 43.5932 33.7021 45.5712 32.9815 48.5033C32.9881 47.664 32.1989 45.8893 31.433 45.4894C31.7929 46.4987 32.0542 48.3763 31.2661 49.9755C31.4941 44.5467 28.7534 43.7387 25.2388 43.0686C27.3344 44.0723 30.0894 45.3748 30.1176 48.7618C29.4736 47.539 28.8779 46.9422 27.8348 46.7167C28.6774 48.4965 28.8469 51.8065 32.643 53.4407C28.0455 53.2214 27.3446 50.7924 26.4771 48.675C26.4887 48.6907 26.8175 53.1709 22.6435 56.5002H22.6433ZM20.8893 58.9655C24.8986 57.3099 26.7025 55.1578 27.3241 53.6837C29.0531 55.5948 33.7145 55.2827 35.0766 54.0583C29.775 49.2633 37.9633 47.3299 32.8184 41.7907C34.4263 42.0769 35.6114 41.6104 36.4981 40.5281C32.4732 41.1372 30.7771 39.0681 29.314 35.9504C30.6142 37.6347 31.6418 38.3075 32.9733 39.0784C33.0793 39.1415 33.1824 39.1778 33.2808 39.1855C34.3793 39.2646 34.6166 38.7142 34.6166 38.7142C34.6166 38.7142 35.2664 38.6401 35.8007 38.3926C36.3365 38.1435 36.0748 37.6687 36.0748 37.6687C36.3377 37.4256 37.1123 36.787 37.1686 35.7167C36.4735 36.4637 34.9514 37.2249 34.0206 35.9371C32.4869 33.1692 37.5512 31.4715 38.1866 33.3892C38.3495 34.1887 37.4052 34.6945 37.2431 34.9055C38.7257 34.9385 39.0092 34.449 39.6125 33.9626C39.7084 34.5012 39.2115 35.3089 38.3579 35.943C40.2933 35.6946 40.8027 34.3765 41.1231 33.7861C41.1231 33.7861 41.7617 33.8773 42.35 33.2073C42.9378 32.5388 44.0886 30.949 44.0886 30.949C44.0886 30.949 44.5038 30.867 45.0791 30.2551C45.6548 29.6431 46.0061 29.2664 45.8448 28.656C45.837 28.6227 45.8274 28.5991 45.8178 28.5818C45.5641 27.9337 44.0867 26.5191 42.4623 25.1395C40.7741 23.7058 40.7188 22.2548 39.8819 21.2501C39.7249 21.0622 39.5634 20.93 39.3935 20.8322C38.7965 20.4837 38.0938 20.5501 37.0953 19.9697C36.8737 19.8403 36.6377 19.6796 36.3837 19.4746C34.6673 18.0885 34.9829 17.8849 35.0224 17.6499C35.0632 17.415 35.5705 16.7733 35.3868 16.3127C35.3003 16.0956 35.1084 15.8284 34.8718 15.7543C36.394 14.527 34.3344 12.9993 33.0205 12.9993C33.2536 11.2871 30.1608 9.84123 28.9661 10.8987C28.42 9.81337 26.0586 10.1157 25.2414 10.6687C24.3134 10.0652 23.0268 9.97324 21.9791 10.2569C18.6601 11.1577 17.5628 14.0556 13.4392 12.6475C13.8643 13.9274 14.74 14.214 15.4967 14.5558C15.4967 14.5558 13.7091 14.4517 11.5978 16.2243C9.48456 17.997 8.25633 21.8005 8.25633 21.8005C8.25633 21.8005 6.40989 22.0185 4.86765 25.4134C3.32694 28.8105 4.61558 33.6266 4.13373 36.3799C3.75022 38.5752 1.99731 41.2608 0 42.3838C3.02458 43.1123 3.99779 42.577 6.2814 40.5656C6.56209 42.5899 6.07861 48.6758 2.43152 50.7625C6.1335 52.6532 11.5907 48.3196 11.2709 45.6232C12.1919 46.9216 12.8035 50.6691 11.8908 54.2654C16.7214 53.6799 17.4815 52.102 18.1993 50.5793C19.2949 52.0516 21.2312 55.5004 20.8892 58.9654L20.8893 58.9655ZM29.3372 6.7608C28.8775 6.33925 28.6786 5.68155 28.5926 5.23416L28.6032 5.23253H28.6037L28.6144 5.23091H28.6146L28.6253 5.22847H28.6258L28.6367 5.22603H28.6371L28.6474 5.22359H28.6477L28.6583 5.22074H28.6586L28.6689 5.21779H28.6693L28.6796 5.21433H28.6799C28.8774 5.15107 29.0211 4.96831 29.0211 4.75108C29.0211 4.09999 28.0361 4.09999 28.0361 4.75108C28.0361 4.9434 28.1491 5.10826 28.3117 5.18809C26.9716 7.55997 24.4304 6.11937 24.4304 4.04161C24.4304 3.74536 24.6817 3.40333 24.9941 3.4729C25.4473 3.57867 25.4242 4.2621 25.3528 4.61592L25.3537 4.61541V4.61592C25.9886 4.15633 26.2196 3.29512 25.6424 2.72082C25.3179 2.39812 24.8261 2.30638 24.4304 2.54833C24.4589 2.0505 24.4349 0.397652 23.7085 0C22.8715 0.459588 22.9868 2.54864 22.9868 2.54864C22.9868 2.54864 22.3519 2.1462 21.7745 2.72082C21.1974 3.29512 21.4286 4.15633 22.0635 4.61592C22.0635 4.61592 21.8899 3.75471 22.2941 3.52466C22.6985 3.29512 22.9868 3.75471 22.9868 4.04161C22.9868 5.14639 22.5249 6.12934 20.909 6.41675C20.0382 6.57103 19.4122 5.73219 19.1045 5.18819C19.2673 5.10846 19.3802 4.9435 19.3802 4.75118C19.3802 4.48066 19.1598 4.26159 18.8883 4.26159C18.6163 4.26159 18.3959 4.48076 18.3959 4.75118C18.3959 4.99954 18.5831 5.20243 18.8246 5.23406C18.7387 5.68144 18.5396 6.33915 18.0803 6.7607C17.2243 7.34914 16.1365 6.82955 15.9627 5.56612C15.8098 4.4472 16.5156 3.76559 16.5156 3.76559C15.8446 3.46852 15.3837 4.02666 15.3837 4.02666C14.9284 3.17664 14.1777 3.06874 13.6123 3.0427C14.5264 3.94296 15.9885 8.31897 16.6933 11.2221C16.7222 11.4676 16.7625 11.6905 16.8129 11.8923C17.5616 11.5709 18.3624 11.0774 18.8025 10.8192C19.6652 10.3136 20.6977 9.68166 21.6638 9.41978C22.7756 9.11824 24.0451 9.19716 25.0747 9.73831C25.6286 9.49504 26.4295 9.36588 26.9264 9.31727C27.482 9.26276 28.0525 9.33659 28.5398 9.62054C29.1013 9.94782 28.7045 9.89107 29.3507 9.74248C29.9364 9.60742 30.5176 9.68899 31.0714 9.89036L31.072 9.88853L31.0725 9.88659L31.073 9.88446L31.0735 9.88283L31.074 9.8809L31.0745 9.87927L31.0748 9.87825V9.87693L31.0753 9.87561L31.0755 9.87459L31.0761 9.87358V9.87225L31.0767 9.87144L31.0769 9.87042V9.86961L31.0774 9.86859V9.86757L31.0782 9.86564L31.0784 9.86493L31.0803 9.85781L31.0808 9.85588L31.0814 9.85456L31.0817 9.85273L31.083 9.84876L31.0835 9.84632L31.0929 9.81337V9.81316C31.8599 7.06875 33.0291 3.80617 33.8041 3.0427C33.2386 3.06874 32.4879 3.17654 32.0329 4.02666C32.0329 4.02666 31.5718 3.46852 30.9008 3.76559C30.9008 3.76559 31.6068 4.4472 31.4537 5.56612C31.28 6.82894 30.1928 7.34853 29.3368 6.76151V6.7607L29.3372 6.7608ZM31.6797 12.8887C31.6918 14.2302 33.2072 14.0498 33.9655 14.7607C33.3348 15.2684 33.3385 16.2325 33.9511 16.7481C33.532 17.5752 33.4476 18.2693 34.0453 19.0549C32.3266 21.3834 29.942 16.9581 31.0599 16.1804C31.7244 15.6993 32.709 16.7648 32.6453 17.647C34.1762 15.4716 30.7085 12.8473 28.4639 13.2334C29.4542 13.914 29.559 14.7437 29.2056 15.7511C28.7885 14.6353 26.7437 13.2912 24.6309 12.9682C25.0252 13.7752 24.5468 14.7079 24.1816 15.0583C23.5513 13.2528 21.1917 12.3631 19.1233 12.7486C23.018 10.5871 24.1958 11.5415 25.3325 12.0126C26.2356 11.4877 27.4577 11.5716 28.288 12.0548C28.7715 12.3305 29.3685 12.2919 29.8079 11.9427C30.2749 11.6595 31.627 12.3021 31.6797 12.8889V12.8887ZM16.0781 13.8323C17.8271 13.8777 20.3857 13.0005 22.1213 14.5518C20.9063 14.231 18.997 14.0812 18.1671 14.9607C19.1658 14.432 21.5604 15.1527 22.9672 15.9515C21.4644 16.0734 19.9846 17.472 19.0901 18.8706C18.291 18.1937 17.1615 18.0731 16.2272 18.4392C16.6898 17.6274 17.6019 16.9356 18.2462 16.691C17.1037 16.4073 15.3902 16.8966 13.6248 18.2083C14.3331 16.2689 16.2197 15.0815 17.3943 15.0209C17.0341 14.4392 16.7632 14.2048 16.0781 13.8322V13.8323ZM23.5617 20.9589C22.6141 21.2427 22.031 22.3102 21.78 23.0955C21.5664 22.5528 21.2615 21.6984 22.1749 20.1864C20.3919 21.0947 20.1134 25.258 20.1282 26.3836C17.1237 22.0225 20.8459 17.1554 22.8731 17.1192C21.2435 18.1799 20.8016 19.5068 20.8977 20.1223C21.6088 19.0884 22.2919 18.9742 23.3641 19.1043C22.7341 19.6468 22.8985 20.5882 23.5616 20.9588L23.5617 20.9589ZM5.59073 34.349C5.51192 30.2703 4.57746 25.9844 8.2643 22.9911C6.84022 26.4944 8.59344 29.4773 9.14173 30.209C8.04597 29.6386 7.30295 29.0704 6.88499 27.2964C6.48584 28.6435 6.51579 33.8394 6.71214 35.071C7.50156 33.0409 7.73359 32.4385 8.86809 31.3427C7.74259 38.2119 10.4653 38.8002 11.4022 43.6493C10.8181 42.6724 10.3813 42.3691 9.65649 42.2107C11.2133 44.6309 8.78233 48.2464 5.66228 49.5386C8.18334 46.4583 8.21421 38.4636 7.29304 35.8616C6.66349 38.3874 5.40101 39.7511 3.53505 40.944C4.77729 38.9812 5.63386 36.8223 5.59083 34.3491L5.59073 34.349ZM13.3996 41.9712C12.7014 40.3826 12.482 36.3423 12.671 34.9701C13.0613 39.3008 15.9079 42.5307 15.205 46.5525C16.1267 45.9431 16.9823 44.1859 16.9098 42.3115C19.7699 46.306 20.3869 45.7875 21.5219 53.7335C21.0199 50.6009 18.8617 47.9383 16.9467 47.0325C17.258 49.4337 16.3996 51.783 14.0521 52.3438C14.7145 48.6538 13.533 46.5395 11.857 44.1583C13.0552 44.9364 12.9754 44.81 14.2483 44.8414C12.1482 42.9553 11.8076 41.8572 11.2591 40.2208C12.311 41.4198 12.068 41.1979 13.3994 41.9711L13.3996 41.9712ZM44.3011 29.1227C43.848 28.869 43.6374 28.331 43.4342 28.5662C43.2916 28.9856 43.3343 29.408 43.4468 29.7772C43.2714 29.8718 43.1173 30.0028 42.9986 30.1667C42.6878 30.5941 41.7859 31.8179 41.3371 32.3274C41.2645 32.4105 41.2124 32.4393 41.1884 32.4488C40.8413 32.4329 40.5006 32.551 40.2406 32.7783C39.9172 32.6079 39.532 32.5748 39.1772 32.6979C37.8708 30.7986 31.0367 30.5895 32.5132 36.2572C30.342 34.7629 28.9481 32.5603 30.2178 27.3506C27.5125 29.5897 28.0042 32.9159 28.5059 34.835C24.7677 30.8385 25.7661 24.5944 29.5688 21.8102C29.5688 21.8102 29.5308 21.162 28.8426 20.9017C28.1564 20.6416 28.5352 18.806 28.1612 18.3108C27.2516 17.1025 25.5583 16.7744 24.7226 17.7599C25.5221 18.1134 25.8772 18.8629 25.8026 19.1672C25.7281 19.473 25.1586 19.4284 25.2316 20.0451C25.5076 20.701 26.4752 21.124 27.196 21.4411C27.1559 21.552 23.6051 24.0941 23.9307 26.8641C23.9307 26.8641 24.7099 25.2158 25.9786 24.5873C24.4666 27.8247 24.5666 29.1521 25.4165 32.3691C23.5216 31.1174 20.3597 27.5641 21.7923 24.1495C21.781 24.6792 22.1648 25.5991 22.9178 26.1365C22.9227 23.7452 24.2685 22.6377 25.4237 22.1197C24.5496 22.0622 23.723 22.4258 23.0635 22.9361C23.896 21.6156 24.4361 21.1544 25.4264 21.0947C24.6712 20.8617 24.0107 20.0969 24.7122 19.2899C22.6098 18.5583 24.0699 13.4016 28.5384 16.4767C29.5493 17.0985 31.529 22.1421 33.5819 21.1162C33.9941 20.9098 34.3855 20.2236 34.5361 19.6275C35.6118 20.7161 36.689 21.4291 38.1959 21.818C38.5019 21.8974 38.6557 21.8958 38.876 22.1428C38.874 22.1445 38.8712 22.1445 38.8695 22.1461C38.6207 22.2924 39.0012 23.1914 38.6792 23.5195C38.3558 23.8475 37.6697 23.4172 36.8185 23.3731C35.9673 23.3301 35.6973 23.4313 35.7008 23.5636C35.7059 23.6946 37.0214 23.9108 37.1469 24.3066C37.2701 24.7024 37.9929 25.3474 38.2228 25.2876C38.4524 25.2276 37.9833 24.9231 37.8263 24.6377C37.6696 24.3524 38.0087 24.1632 38.402 24.1015C38.795 24.0385 39.2307 24.2922 39.5622 24.3887C39.7618 24.4469 39.9075 24.3747 39.9851 24.2498C41.9107 27.2783 42.8783 26.8055 44.4724 28.9304C44.4249 28.987 44.3648 29.0534 44.301 29.1228L44.3011 29.1227Z" fill="#1C1C1C"/>
<path d="M73.4174 22.1517H71.1628L70.4451 19.8181C70.0997 19.4739 69.6638 19.203 69.1379 19.0023C68.6118 18.801 67.9909 18.7026 67.2757 18.7026C65.7503 18.7026 64.5747 19.2564 63.7526 20.3596C62.9301 21.4668 62.5193 22.9062 62.5193 24.6864V25.2975C62.5193 27.077 62.9262 28.5251 63.7483 29.6363C64.5663 30.7518 65.7216 31.3055 67.2139 31.3055C67.9044 31.3055 68.5379 31.2068 69.1129 31.0062C69.6845 30.8053 70.1286 30.5344 70.445 30.1901L70.5854 29.7332L71.1627 27.8564H73.4173V31.3178C72.7102 32.1338 71.81 32.786 70.7122 33.2701C69.6188 33.7541 68.3937 33.9961 67.033 34C64.6812 33.9961 62.7533 33.1839 61.2528 31.5598C59.7525 29.9315 59 27.8483 59 25.2976V24.7111C59 22.1721 59.7485 20.0848 61.2406 18.4525C62.737 16.8164 64.6651 16.0002 67.0329 16.0002C68.2853 16.0002 69.4196 16.209 70.4449 16.626V16.6256L71.1625 16.2502H73.4171V22.1517H73.4174ZM189.26 22.1517H187.005L186.287 19.8181C185.942 19.4739 185.506 19.203 184.98 19.0023C184.657 18.8787 184.297 18.7935 183.903 18.7465L183.883 18.7443L183.874 18.7431L183.853 18.741L183.845 18.7398H183.843C183.613 18.7148 183.372 18.7024 183.118 18.7024H183.081L183.078 18.7027H183.054C182.906 18.7046 182.761 18.7114 182.62 18.7232V16.0032C182.704 16.001 182.789 16 182.875 16C184.128 16 185.262 16.2088 186.287 16.6258V16.6254L187.005 16.25H189.26V22.1515V22.1517ZM196.511 18.9566V23.3533H199.182L199.899 21.8907H201.068V27.462H199.899L199.182 26.0558H196.511V31.0552H202.122L203.643 28.9637H205V33.7456H191.126V32.2289L192.992 31.2808V18.7271L191.126 17.767V16.2501H204.975V21.0443H203.643L202.122 18.9565C199.867 18.9565 198.859 18.9565 196.511 18.9565L196.511 18.9566ZM144.509 25.4038C145.185 25.7113 145.696 26.1333 146.042 26.6722C146.501 27.3918 146.73 28.2859 146.73 29.3461V30.2485C146.73 30.6387 146.761 31.472 146.914 31.6847C147.069 31.8999 147.373 32.123 147.731 32.1705L148.172 32.229V33.7457H146.326C145.163 33.7457 144.346 33.4339 143.875 32.806C143.4 32.1824 143.166 31.3754 143.166 30.3815V29.3712C143.166 28.5105 142.937 27.8369 142.474 27.3419C142.138 26.9826 141.7 26.7478 141.16 26.6383C140.962 26.643 140.761 26.6398 140.553 26.6273H137.676V31.281L139.555 32.229V33.7457H132.29V32.229L134.157 31.281V18.7272L132.29 17.7671L132.29 16.2502H140.167C142.161 16.2502 143.4 16.3628 144.744 17.6556C145.838 18.7066 146.438 20.0116 146.386 21.439C146.359 22.2045 146.302 22.8941 145.908 23.6161C145.516 24.3342 145.052 24.9334 144.51 25.4038H144.509ZM74.8521 32.229L76.1061 31.4613L81.4421 16.2502H85.043L90.342 31.4613L91.5919 32.229V33.7457H85.6184V32.229L86.8353 31.4286L86.0665 29.0251H80.3814L79.6087 31.4286L80.8254 32.229V33.7457H74.8519V32.229H74.8521ZM81.212 26.4416H85.2363L83.2589 20.2774H83.1849L81.2119 26.4416H81.212ZM109.672 20.8063L109.602 20.7943L104.903 33.7457H102.543L97.869 20.8391L97.7993 20.8516L98.1362 28.5293V31.281L100.015 32.229V33.7457H92.7506V32.229L94.6172 31.281V18.7272L92.7506 17.7671V16.2502H99.2052L103.674 29.144H103.748L108.253 16.2502H114.732V17.7671L112.853 18.7272V31.281L114.732 32.229V33.7457H107.468V32.229L109.335 31.281V28.5293L109.672 20.8063H109.672ZM123.776 16.2502C125.84 16.2502 127.447 16.6523 128.602 17.4516C129.762 18.2555 130.338 19.4531 130.338 21.0444C130.338 21.8566 130.124 22.5784 129.696 23.2138C129.265 23.8495 128.64 24.3292 127.822 24.6492C128.874 24.875 129.663 25.3549 130.19 26.0926C130.716 26.8272 130.979 27.68 130.979 28.6519C130.979 30.3251 130.424 31.5928 129.314 32.4538C128.208 33.3148 126.638 33.7457 124.607 33.7457H115.982V32.229L117.848 31.281V18.7272L115.982 17.7671V16.2502H123.777H123.776ZM121.368 26.0068V31.0553H124.607C125.536 31.0553 126.247 30.8501 126.736 30.4483C127.225 30.0422 127.472 29.4434 127.472 28.6518C127.472 27.7947 127.263 27.1386 126.847 26.6873C126.428 26.2322 125.77 26.0067 124.87 26.0067H121.368V26.0068ZM121.368 23.5791H123.896C124.833 23.5791 125.556 23.3901 126.062 23.0046C126.568 22.6192 126.823 22.0576 126.823 21.3234C126.823 20.5112 126.568 19.9165 126.058 19.5312C125.548 19.1456 124.788 18.9566 123.777 18.9566H121.368V23.5791H121.368ZM137.676 23.9643H140.515C142.029 23.9643 143.025 22.717 143.025 21.4606C143.025 20.2048 142.056 18.9566 140.515 18.9566H137.676V23.9643ZM149.236 17.7671V16.2502H156.5L156.499 17.7671L154.621 18.7272V31.281L156.5 32.229V33.7457H149.236V32.229L151.114 31.281V18.7272L149.236 17.7671ZM165.724 16.2502C167.87 16.2502 169.634 16.9349 171.023 18.3009C172.413 19.6666 173.107 21.4178 173.107 23.5583V26.4539C173.107 28.5986 172.413 30.3496 171.023 31.7074C169.634 33.0646 167.87 33.7455 165.724 33.7455H157.835V32.2287L159.702 31.2807V18.727L157.835 17.7669V16.25H165.724V16.2502ZM163.221 18.9566V31.0553H165.544C166.806 31.0553 167.792 30.6286 168.508 29.7798C169.223 28.9308 169.58 27.8235 169.58 26.454V23.5337C169.58 22.1802 169.223 21.0772 168.508 20.2282C167.792 19.3793 166.806 18.9566 165.544 18.9566H163.221ZM183.843 18.7399C183.612 18.7165 183.371 18.7037 183.118 18.7025L183.843 18.7399ZM182.62 18.7203C181.306 18.8248 180.268 19.3845 179.504 20.3964C178.653 21.5241 178.226 23.0046 178.226 24.8294V25.4532C178.226 27.2327 178.645 28.6518 179.479 29.7141C180.314 30.7762 181.519 31.3054 183.093 31.3054C183.8 31.3054 184.372 31.2477 184.807 31.1251C185.247 31.006 185.588 30.8667 185.839 30.7067V27.7373L183.332 27.0213V25.0839L189.26 25.1655V32.3101C188.524 32.8796 188.079 33.067 186.989 33.5168C185.897 33.968 184.4 33.9997 182.731 33.9997C180.363 33.9997 178.435 33.2082 176.951 31.625C175.463 30.042 174.723 27.9873 174.723 25.4531V24.8543C174.723 22.2334 175.452 20.103 176.918 18.4604C178.383 16.8182 180.26 16.0032 182.619 16.0032V18.7202L182.62 18.7203Z" fill="#1C1C1C"/>
</svg>
